<svg width="33" height="79" viewBox="0 0 33 79" fill="none" xmlns="http://www.w3.org/2000/svg">
<path fill-rule="evenodd" clip-rule="evenodd" d="M30.2267 76.7164C30.3911 76.9383 30.6576 76.9383 30.822 76.7164C30.9864 76.4945 30.9864 76.1348 30.822 75.9129L3.84345 39.4992L30.822 3.08554C30.9864 2.86366 30.9864 2.50392 30.822 2.28204C30.6576 2.06016 30.3911 2.06016 30.2267 2.28204L2.95059 39.0973C2.86834 39.2083 2.82725 39.3539 2.82731 39.4994C2.82731 39.5307 2.82922 39.562 2.83303 39.593C2.84692 39.7058 2.88611 39.8141 2.9506 39.9011L30.2267 76.7164Z" fill="black"/>
<path d="M30.822 76.7164L32.429 77.907L32.429 77.907L30.822 76.7164ZM30.2267 76.7164L31.8337 75.5258L31.8337 75.5258L30.2267 76.7164ZM30.822 75.9129L32.429 74.7223L32.429 74.7223L30.822 75.9129ZM3.84345 39.4992L2.23645 38.3086L1.35434 39.4992L2.23645 40.6898L3.84345 39.4992ZM30.822 3.08554L29.215 1.89492L29.215 1.89493L30.822 3.08554ZM30.822 2.28204L32.429 1.09142L30.822 2.28204ZM30.2267 2.28204L28.6197 1.09142L28.6197 1.09143L30.2267 2.28204ZM2.95059 39.0973L4.55759 40.2879L4.55759 40.2879L2.95059 39.0973ZM2.82731 39.4994H4.82731L4.82731 39.4986L2.82731 39.4994ZM2.83303 39.593L0.84802 39.8374L0.848025 39.8375L2.83303 39.593ZM2.9506 39.9011L4.5576 38.7105L4.55759 38.7105L2.9506 39.9011ZM29.215 75.5258C29.4472 75.2125 29.8998 74.8828 30.5244 74.8828C31.149 74.8828 31.6016 75.2125 31.8337 75.5258L28.6197 77.907C29.0162 78.4422 29.6843 78.8828 30.5244 78.8828C31.3644 78.8828 32.0325 78.4422 32.429 77.907L29.215 75.5258ZM29.215 77.1035C28.9988 76.8116 28.9453 76.5192 28.9453 76.3147C28.9453 76.1101 28.9988 75.8177 29.215 75.5258L32.429 77.907C32.8097 77.3932 32.9453 76.81 32.9453 76.3147C32.9453 75.8193 32.8097 75.2361 32.429 74.7223L29.215 77.1035ZM2.23645 40.6898L29.215 77.1035L32.429 74.7223L5.45045 38.3086L2.23645 40.6898ZM5.45045 40.6898L32.429 4.27615L29.215 1.89493L2.23645 38.3086L5.45045 40.6898ZM32.429 4.27616C32.8097 3.76239 32.9453 3.17914 32.9453 2.68379C32.9453 2.18844 32.8097 1.60519 32.429 1.09142L29.215 3.47266C28.9988 3.18077 28.9453 2.88833 28.9453 2.68379C28.9453 2.47925 28.9988 2.18681 29.215 1.89492L32.429 4.27616ZM32.429 1.09142C32.0325 0.556226 31.3644 0.115632 30.5244 0.115632C29.6843 0.115632 29.0162 0.556226 28.6197 1.09142L31.8337 3.47266C31.6016 3.78598 31.149 4.11563 30.5244 4.11563C29.8998 4.11563 29.4472 3.78598 29.215 3.47266L32.429 1.09142ZM28.6197 1.09143L1.3436 37.9067L4.55759 40.2879L31.8337 3.47265L28.6197 1.09143ZM1.3436 37.9067C0.96267 38.4209 0.827121 39.0046 0.827309 39.5001L4.82731 39.4986C4.82739 39.7032 4.77402 39.9958 4.55759 40.2879L1.3436 37.9067ZM4.81804 39.3486C4.8243 39.3994 4.82731 39.4497 4.82731 39.4994H0.827309C0.827309 39.6116 0.834131 39.7246 0.84802 39.8374L4.81804 39.3486ZM4.55759 38.7105C4.73028 38.9436 4.79672 39.1755 4.81804 39.3486L0.848025 39.8375C0.897125 40.2362 1.04195 40.6846 1.34361 41.0917L4.55759 38.7105ZM31.8337 75.5258L4.5576 38.7105L1.3436 41.0917L28.6197 77.907L31.8337 75.5258Z" fill="black"/>
</svg>
