<svg width="587" height="183" viewBox="0 0 587 183" fill="none" xmlns="http://www.w3.org/2000/svg">
<path d="M1.52377 46.9006H75.4291C75.5612 46.8973 75.6922 46.9309 75.8124 46.9989C75.9326 47.0669 76.0389 47.1676 76.1235 47.2936C76.208 47.4195 76.2687 47.5674 76.3009 47.7264C76.3332 47.8853 76.3362 48.0513 76.3098 48.2119L75.6845 51.9926C75.6433 52.2431 75.5326 52.4678 75.3717 52.6275C75.2108 52.7873 75.0098 52.8719 74.8038 52.8668H44.5618C44.3545 52.8621 44.1526 52.9483 43.9915 53.1102C43.8304 53.2721 43.7205 53.4993 43.6812 53.7518L28.1991 153.1C28.1597 153.353 28.0498 153.58 27.8887 153.742C27.7276 153.904 27.5257 153.99 27.3184 153.985H16.7504C16.6193 153.988 16.4892 153.955 16.3698 153.887C16.2504 153.82 16.1446 153.72 16.0602 153.596C15.9758 153.471 15.9149 153.325 15.8819 153.167C15.849 153.009 15.8448 152.845 15.8698 152.685L31.299 54.1671C31.324 54.0072 31.3198 53.8425 31.2869 53.685C31.2539 53.5274 31.193 53.3809 31.1086 53.2563C31.0242 53.1317 30.9184 53.032 30.799 52.9646C30.6796 52.8972 30.5495 52.8638 30.4184 52.8668H0.898494C0.766411 52.8701 0.635418 52.8365 0.515218 52.7685C0.395019 52.7004 0.288694 52.5997 0.204119 52.4738C0.119544 52.3479 0.0588862 52.2 0.0266388 52.041C-0.00560867 51.882 -0.00861929 51.7161 0.0178299 51.5555L0.643101 47.7748C0.684273 47.5242 0.794949 47.2996 0.955862 47.1398C1.11678 46.9801 1.31774 46.8955 1.52377 46.9006Z" fill="black"/>
<path d="M1.52377 46.9006H75.4291C75.5612 46.8973 75.6922 46.9309 75.8124 46.9989C75.9326 47.0669 76.0389 47.1676 76.1235 47.2936C76.208 47.4195 76.2687 47.5674 76.3009 47.7264C76.3332 47.8853 76.3362 48.0513 76.3098 48.2119L75.6845 51.9926C75.6433 52.2431 75.5326 52.4678 75.3717 52.6275C75.2108 52.7873 75.0098 52.8719 74.8038 52.8668H44.5618C44.3545 52.8621 44.1526 52.9483 43.9915 53.1102C43.8304 53.2721 43.7205 53.4993 43.6812 53.7518L28.1991 153.1C28.1597 153.353 28.0498 153.58 27.8887 153.742C27.7276 153.904 27.5257 153.99 27.3184 153.985H16.7504C16.6193 153.988 16.4892 153.955 16.3698 153.887C16.2504 153.82 16.1446 153.72 16.0602 153.596C15.9758 153.471 15.9149 153.325 15.8819 153.167C15.849 153.009 15.8448 152.845 15.8698 152.685L31.299 54.1671C31.324 54.0072 31.3198 53.8425 31.2869 53.685C31.2539 53.5274 31.193 53.3809 31.1086 53.2563C31.0242 53.1317 30.9184 53.032 30.799 52.9646C30.6796 52.8972 30.5495 52.8638 30.4184 52.8668H0.898494C0.766411 52.8701 0.635418 52.8365 0.515218 52.7685C0.395019 52.7004 0.288694 52.5997 0.204119 52.4738C0.119544 52.3479 0.0588862 52.2 0.0266388 52.041C-0.00560867 51.882 -0.00861929 51.7161 0.0178299 51.5555L0.643101 47.7748C0.684273 47.5242 0.794949 47.2996 0.955862 47.1398C1.11678 46.9801 1.31774 46.8955 1.52377 46.9006Z" stroke="black"/>
<path d="M83.2854 97.2303L91.0353 47.7857C91.0746 47.5331 91.1845 47.3059 91.3456 47.144C91.5067 46.9821 91.7087 46.8959 91.9159 46.9006H122.739C141.233 46.9006 150.603 56.7349 148.014 73.5187C146.042 86.0629 138.521 94.7827 127.054 98.1482C140.37 100.902 147.028 110.845 144.809 125.706C141.973 143.299 128.781 154.007 109.793 154.007H75.4475C75.3163 154.01 75.1863 153.977 75.0668 153.909C74.9474 153.842 74.8416 153.742 74.7572 153.617C74.6728 153.493 74.6119 153.346 74.579 153.189C74.546 153.031 74.5419 152.866 74.5669 152.707L83.2854 97.2303ZM94.8574 102.399L87.812 146.719C87.7871 146.878 87.7912 147.043 87.8242 147.201C87.8571 147.358 87.918 147.505 88.0024 147.629C88.0868 147.754 88.1926 147.854 88.312 147.921C88.4315 147.989 88.5615 148.022 88.6927 148.019H106.579C120.018 148.019 129.881 139.758 132.118 124.919C134.355 110.08 127.31 101.514 113.871 101.514H95.7292C95.5234 101.512 95.3236 101.599 95.1643 101.761C95.005 101.922 94.8964 102.148 94.8574 102.399ZM102.387 53.7518L96.0639 94.2472C96.0389 94.4071 96.0431 94.5718 96.076 94.7294C96.1089 94.8869 96.1698 95.0334 96.2542 95.158C96.3386 95.2826 96.4444 95.3823 96.5639 95.4497C96.6833 95.5171 96.8133 95.5505 96.9445 95.5476H111.291C124.236 95.5476 133.607 88.3576 135.703 74.2836C137.799 60.2097 130.894 52.8667 117.825 52.8667H103.25C103.046 52.8672 102.848 52.9557 102.691 53.1172C102.533 53.2786 102.426 53.503 102.387 53.7518Z" fill="black"/>
<path d="M83.2854 97.2303L91.0353 47.7857C91.0746 47.5331 91.1845 47.3059 91.3456 47.144C91.5067 46.9821 91.7087 46.8959 91.9159 46.9006H122.739C141.233 46.9006 150.603 56.7349 148.014 73.5187C146.042 86.0629 138.521 94.7827 127.054 98.1482C140.37 100.902 147.028 110.845 144.809 125.706C141.973 143.299 128.781 154.007 109.793 154.007H75.4475C75.3163 154.01 75.1863 153.977 75.0668 153.909C74.9474 153.842 74.8416 153.742 74.7572 153.617C74.6728 153.493 74.6119 153.346 74.579 153.189C74.546 153.031 74.5419 152.866 74.5669 152.707L83.2854 97.2303ZM94.8574 102.399L87.812 146.719C87.7871 146.878 87.7912 147.043 87.8242 147.201C87.8571 147.358 87.918 147.505 88.0024 147.629C88.0868 147.754 88.1926 147.854 88.312 147.921C88.4315 147.989 88.5615 148.022 88.6927 148.019H106.579C120.018 148.019 129.881 139.758 132.118 124.919C134.355 110.08 127.31 101.514 113.871 101.514H95.7292C95.5234 101.512 95.3236 101.599 95.1643 101.761C95.005 101.922 94.8964 102.148 94.8574 102.399ZM102.387 53.7518L96.0639 94.2472C96.0389 94.4071 96.0431 94.5718 96.076 94.7294C96.1089 94.8869 96.1698 95.0334 96.2542 95.158C96.3386 95.2826 96.4444 95.3823 96.5639 95.4497C96.6833 95.5171 96.8133 95.5505 96.9445 95.5476H111.291C124.236 95.5476 133.607 88.3576 135.703 74.2836C137.799 60.2097 130.894 52.8667 117.825 52.8667H103.25C103.046 52.8672 102.848 52.9557 102.691 53.1172C102.533 53.2786 102.426 53.503 102.387 53.7518Z" stroke="black"/>
<path d="M214.097 45.8301C239.372 45.8301 254.044 69.0827 249.236 100.465C244.427 131.847 222.235 155.209 196.96 155.209C171.685 155.209 156.766 131.804 161.733 100.443C166.7 69.0827 188.822 45.8301 214.097 45.8301ZM197.699 149.746C215.577 149.746 231.852 129.4 236.537 100.487C240.94 71.5741 230.989 51.381 213.111 51.381C195.234 51.381 178.959 71.5741 174.52 100.487C169.835 129.356 179.945 149.746 197.699 149.746Z" fill="black"/>
<path d="M214.097 45.8301C239.372 45.8301 254.044 69.0827 249.236 100.465C244.427 131.847 222.235 155.209 196.96 155.209C171.685 155.209 156.766 131.804 161.733 100.443C166.7 69.0827 188.822 45.8301 214.097 45.8301ZM197.699 149.746C215.577 149.746 231.852 129.4 236.537 100.487C240.94 71.5741 230.989 51.381 213.111 51.381C195.234 51.381 178.959 71.5741 174.52 100.487C169.835 129.356 179.945 149.746 197.699 149.746Z" stroke="black"/>
<path d="M260.289 152.685L276.714 47.7858C276.753 47.5333 276.863 47.3061 277.024 47.1442C277.185 46.9823 277.387 46.8961 277.594 46.9008H288.162C288.294 46.8978 288.424 46.9312 288.543 46.9986C288.662 47.066 288.768 47.1657 288.853 47.2903C288.937 47.4149 288.998 47.5614 289.031 47.719C289.064 47.8765 289.068 48.0412 289.043 48.2011L275.428 134.524C275.389 134.76 275.415 135.005 275.5 135.221C275.585 135.437 275.725 135.613 275.899 135.72C276.073 135.827 276.27 135.86 276.46 135.814C276.651 135.767 276.823 135.644 276.951 135.464L341.134 47.2723C341.217 47.1591 341.317 47.0685 341.429 47.0064C341.542 46.9443 341.663 46.912 341.786 46.9117H350.196C350.327 46.9087 350.458 46.9421 350.577 47.0095C350.696 47.0769 350.802 47.1766 350.887 47.3012C350.971 47.4258 351.032 47.5723 351.065 47.7299C351.098 47.8875 351.102 48.0522 351.077 48.212L334.653 153.111C334.613 153.364 334.503 153.591 334.342 153.753C334.181 153.915 333.979 154.001 333.772 153.996H323.204C323.073 153.999 322.943 153.966 322.823 153.898C322.704 153.831 322.598 153.731 322.514 153.607C322.429 153.482 322.368 153.336 322.335 153.178C322.302 153.02 322.298 152.856 322.323 152.696L335.815 66.3727C335.85 66.1393 335.823 65.898 335.738 65.6853C335.653 65.4727 335.515 65.3002 335.343 65.194C335.172 65.0878 334.978 65.0537 334.79 65.0968C334.601 65.1399 334.43 65.2579 334.3 65.4329L270.232 153.636C270.15 153.749 270.049 153.839 269.937 153.902C269.825 153.964 269.703 153.996 269.58 153.996H261.17C261.038 154 260.907 153.966 260.787 153.898C260.667 153.83 260.56 153.729 260.476 153.603C260.391 153.477 260.33 153.329 260.298 153.17C260.266 153.012 260.263 152.846 260.289 152.685ZM336.889 17.529C337.03 17.5214 337.17 17.5558 337.298 17.6293C337.426 17.7028 337.537 17.8131 337.624 17.9512C337.71 18.0893 337.768 18.251 337.794 18.4228C337.819 18.5946 337.811 18.7714 337.77 18.9386C335.489 28.904 326.568 35.8863 315.754 35.8863C304.736 35.8863 297.902 28.6636 299.109 18.4031C299.145 18.1466 299.253 17.9143 299.414 17.748C299.576 17.5817 299.78 17.4924 299.99 17.4962H307.581C307.706 17.4951 307.83 17.5271 307.944 17.59C308.059 17.6529 308.161 17.7453 308.244 17.8611C308.328 17.9769 308.39 18.1134 308.428 18.2615C308.465 18.4096 308.477 18.5659 308.462 18.72C307.634 26.1285 311.024 30.8053 316.52 30.8053C322.015 30.8053 326.929 25.9974 328.506 18.3704C328.552 18.1259 328.665 17.9088 328.825 17.7555C328.986 17.6023 329.184 17.5223 329.386 17.529H336.889Z" fill="black"/>
<path d="M260.289 152.685L276.714 47.7858C276.753 47.5333 276.863 47.3061 277.024 47.1442C277.185 46.9823 277.387 46.8961 277.594 46.9008H288.162C288.294 46.8978 288.424 46.9312 288.543 46.9986C288.662 47.066 288.768 47.1657 288.853 47.2903C288.937 47.4149 288.998 47.5614 289.031 47.719C289.064 47.8765 289.068 48.0412 289.043 48.2011L275.428 134.524C275.389 134.76 275.415 135.005 275.5 135.221C275.585 135.437 275.725 135.613 275.899 135.72C276.073 135.827 276.27 135.86 276.46 135.814C276.651 135.767 276.823 135.644 276.951 135.464L341.134 47.2723C341.217 47.1591 341.317 47.0685 341.429 47.0064C341.542 46.9443 341.663 46.912 341.786 46.9117H350.196C350.327 46.9087 350.458 46.9421 350.577 47.0095C350.696 47.0769 350.802 47.1766 350.887 47.3012C350.971 47.4258 351.032 47.5723 351.065 47.7299C351.098 47.8875 351.102 48.0522 351.077 48.212L334.653 153.111C334.613 153.364 334.503 153.591 334.342 153.753C334.181 153.915 333.979 154.001 333.772 153.996H323.204C323.073 153.999 322.943 153.966 322.823 153.898C322.704 153.831 322.598 153.731 322.514 153.607C322.429 153.482 322.368 153.336 322.335 153.178C322.302 153.02 322.298 152.856 322.323 152.696L335.815 66.3727C335.85 66.1393 335.823 65.898 335.738 65.6853C335.653 65.4727 335.515 65.3002 335.343 65.194C335.172 65.0878 334.978 65.0537 334.79 65.0968C334.601 65.1399 334.43 65.2579 334.3 65.4329L270.232 153.636C270.15 153.749 270.049 153.839 269.937 153.902C269.825 153.964 269.703 153.996 269.58 153.996H261.17C261.038 154 260.907 153.966 260.787 153.898C260.667 153.83 260.56 153.729 260.476 153.603C260.391 153.477 260.33 153.329 260.298 153.17C260.266 153.012 260.263 152.846 260.289 152.685ZM336.889 17.529C337.03 17.5214 337.17 17.5558 337.298 17.6293C337.426 17.7028 337.537 17.8131 337.624 17.9512C337.71 18.0893 337.768 18.251 337.794 18.4228C337.819 18.5946 337.811 18.7714 337.77 18.9386C335.489 28.904 326.568 35.8863 315.754 35.8863C304.736 35.8863 297.902 28.6636 299.109 18.4031C299.145 18.1466 299.253 17.9143 299.414 17.748C299.576 17.5817 299.78 17.4924 299.99 17.4962H307.581C307.706 17.4951 307.83 17.5271 307.944 17.59C308.059 17.6529 308.161 17.7453 308.244 17.8611C308.328 17.9769 308.39 18.1134 308.428 18.2615C308.465 18.4096 308.477 18.5659 308.462 18.72C307.634 26.1285 311.024 30.8053 316.52 30.8053C322.015 30.8053 326.929 25.9974 328.506 18.3704C328.552 18.1259 328.665 17.9088 328.825 17.7555C328.986 17.6023 329.184 17.5223 329.386 17.529H336.889Z" stroke="black"/>
<path d="M551.064 174.403C551.031 175.36 550.792 176.299 550.363 177.162C549.935 178.025 549.325 178.792 548.573 179.415C547.872 180.123 547.034 180.691 546.106 181.086C545.177 181.48 544.178 181.694 543.164 181.714C538.489 181.714 531.471 181.76 522.108 181.852C512.745 181.944 505.73 181.993 501.062 182C497.449 182 495.693 180.471 495.796 177.412L495.938 175.834C497.299 139.329 497.98 117.206 497.98 109.464V66.892C497.98 64.2183 497.347 62.8765 496.081 62.8765C493.066 63.074 490.091 63.6545 487.232 64.6031C484.327 65.5596 481.303 66.1369 478.24 66.3198C475.219 66.3198 473.709 64.5505 473.709 61.0118C473.709 57.7626 473.658 52.892 473.556 46.4001C473.454 39.9082 473.406 34.9751 473.413 31.6009C473.413 29.6869 474.631 28.253 477.067 27.2993C491.397 21.4783 502.654 13.6446 510.84 3.79823C512.504 1.825 513.902 0.789062 515.086 0.789062C515.676 0.845818 516.263 0.938079 516.841 1.06531C520.536 1.83487 526.041 3.03196 533.355 4.65658C537.254 5.13015 542.956 5.9885 550.461 7.23163C551.829 7.61641 552.503 8.67209 552.503 10.3888C552.459 11.3798 552.36 12.3679 552.207 13.3486C551.132 21.7546 550.598 42.3484 550.604 75.1302C550.604 86.1211 550.676 102.653 550.819 124.727C550.962 146.801 551.043 163.36 551.064 174.403Z" stroke="black" stroke-width="1.56"/>
<path d="M550.838 172.825C550.804 173.779 550.563 174.716 550.131 175.574C549.698 176.432 549.083 177.193 548.327 177.807C547.738 178.342 547.08 178.8 546.367 179.169L543.663 161.745C543.663 161.745 544.244 132.344 539.958 124.609C539.958 124.609 528.087 101.818 519.881 102.391C519.881 102.391 521.259 110.678 519.657 112.257C519.657 112.257 511.655 110.708 510.053 116.904C510.053 116.904 505.97 124.639 502.418 124.639C502.418 124.639 498.846 127.737 503.653 130.825C503.653 130.825 510.053 137.021 516.452 135.472C516.452 135.472 527.679 135.472 516.452 154.04C516.452 154.04 503.041 171.986 496.09 179.06C495.704 178.618 495.415 178.106 495.239 177.553C495.064 177 495.006 176.419 495.069 175.844L495.212 174.275C496.573 137.928 497.254 115.894 497.254 108.172V78.1889C497.254 78.1889 499.111 70.7894 498.213 65.1459C498.213 65.1459 496.304 62.4525 496.172 62.1861C496.172 62.1861 493.477 62.7978 492.089 63.1727C490.031 63.3977 487.987 63.727 485.965 64.1593C481.975 65.3038 479.841 66.1326 477.8 66.1326C476.892 66.1326 475.657 65.0473 475.024 64.7217C473.646 63.5082 474.003 61.7619 473.718 59.2263C473.718 57.5688 473.718 54.6583 473.718 52.32C473.891 49.0247 473.248 46.2523 473.248 44.1509C473.248 44.1509 473.248 41.0529 474.269 27.9803C474.269 27.9803 487.68 22.4849 494.079 17.8379L499.571 13.2107L499.673 13.1219C502.245 10.9218 505.051 8.47499 506.603 6.99507C506.838 6.75829 507.031 6.56096 507.215 6.39324C509.583 4.27203 514.36 0 514.554 0C514.748 0 517.136 0.443974 517.616 0.542635C521.27 2.51586 527.271 7.11346 526.148 14.7498L524.546 33.3179C524.546 33.3179 518.422 52.4581 533.017 57.697C534.038 57.8253 547.388 57.6082 550.511 54.3919C550.511 54.3919 550.429 66.9218 550.429 74.1241C550.429 85.0689 550.504 101.512 550.654 123.455C550.804 145.397 550.865 161.854 550.838 172.825Z" fill="black"/>
<path d="M454.469 101.946C454.469 103.831 454.02 104.985 453.121 105.419L443.242 104.551C440.241 104.262 436.873 104.008 433.137 103.791C429.402 103.574 425.431 103.393 421.226 103.249L409.325 130.173C409.027 130.897 408.651 131.588 408.203 132.235C407.656 132.953 406.858 133.454 405.957 133.646C404.314 133.646 403.487 132.659 403.487 130.607L414.041 103.032H411.122C405.733 103.032 400.718 103.249 396.077 103.683C392.327 103.937 388.628 104.666 385.075 105.853C384.599 105.502 384.224 105.037 383.988 104.505C383.752 103.972 383.663 103.39 383.728 102.814C383.728 101.66 384.748 100.723 386.79 99.9928C389.345 99.1453 391.976 98.5277 394.649 98.1478C398.186 97.6102 401.749 97.248 405.325 97.0625C409.223 96.8455 413.041 96.6646 416.776 96.5199L427.34 69.1612C427.495 68.4075 427.888 67.7185 428.463 67.1879C429.122 66.5904 429.899 66.1284 430.748 65.8299C431.597 65.5314 432.5 65.4027 433.403 65.4515C435.342 65.4515 436.322 66.2507 436.322 67.8391C436.189 68.8914 435.886 69.9169 435.423 70.8779L424.196 96.2831H426.891C432.123 96.2831 436.988 96.4278 441.486 96.7172C445.984 97.0066 449.726 97.3684 452.713 97.8025C453.043 97.9073 453.341 98.0919 453.576 98.3388C453.812 98.5857 453.979 98.8867 454.06 99.2133C454.359 100.095 454.497 101.019 454.469 101.946Z" fill="black"/>
<path d="M506.369 20.7489C508.06 20.7489 509.431 20.0863 509.431 19.269C509.431 18.4516 508.06 17.7891 506.369 17.7891C504.678 17.7891 503.307 18.4516 503.307 19.269C503.307 20.0863 504.678 20.7489 506.369 20.7489Z" fill="white"/>
<path d="M517.157 117.889C517.249 118.225 516.596 119.152 515.555 119.409C514.514 119.665 513.514 119.142 513.391 118.807C513.269 118.471 514.075 117.998 515.116 117.741C516.157 117.485 517.076 117.554 517.157 117.889Z" fill="black"/>
<path d="M545.083 181.438C545.083 181.438 587.001 185.512 587.001 122.369C587.001 122.369 585.541 162.297 551.064 174.403C551.064 174.403 545.011 180.333 545.083 181.438Z" fill="black"/>
</svg>
