<svg width="65" height="66" viewBox="0 0 65 66" fill="none" xmlns="http://www.w3.org/2000/svg">
<path fill-rule="evenodd" clip-rule="evenodd" d="M32.7477 0C15.0036 0 0.619141 14.3845 0.619141 32.1286V33.4103C0.619141 51.1544 15.0036 65.5389 32.7477 65.5389C50.4919 65.5389 64.8763 51.1544 64.8763 33.4102V32.1286C64.8763 14.3845 50.4919 0 32.7477 0ZM32.4123 33.9056C37.5903 33.9056 41.805 29.7296 41.805 24.4483C41.805 21.8691 40.8417 19.4127 39.0354 17.5703C37.2291 15.728 34.9411 14.7454 32.5327 14.7454C27.3547 14.7454 23.2604 19.0442 23.14 24.2027C23.14 26.7819 24.1034 29.1155 25.9096 30.9579C27.5955 32.923 29.8835 33.9056 32.4123 33.9056ZM29.7631 21.6234C30.4856 20.8865 31.4489 20.518 32.4123 20.518C34.5799 20.518 36.1453 22.2375 36.1453 24.3255C36.1453 26.5363 34.4594 28.133 32.4123 28.133C30.2447 28.133 28.6793 26.4135 28.6793 24.3255C28.6793 23.3429 29.0406 22.3604 29.7631 21.6234ZM42.7684 37.3446C43.6113 36.4848 43.7317 35.2566 43.0092 34.0284C42.4071 33.0458 41.3234 32.5546 40.1192 32.8002C39.6375 32.923 39.1558 33.1687 38.6741 33.5371C34.9411 36.1164 29.8835 35.9936 26.1505 33.4143L25.428 33.0458C24.1033 32.4317 22.7787 32.6774 22.0562 33.9056C21.2133 35.1338 21.3337 36.4849 22.4175 37.5902C22.5028 37.6772 22.5881 37.7488 22.668 37.8159L22.668 37.816L22.6681 37.816L22.6681 37.816C22.8138 37.9383 22.9418 38.0457 23.0196 38.2044L23.14 38.3272C24.8259 39.6782 26.873 40.538 29.5222 40.9064L27.9568 42.5031L23.8625 46.679C23.5013 47.0475 23.0196 47.6616 23.0196 48.5214C23.0196 49.6267 23.6217 50.7321 24.7055 51.2234C25.0667 51.4691 25.428 51.4691 25.7892 51.4691C26.3913 51.4691 27.1138 51.2234 27.5955 50.6093L32.2919 45.8193C32.4123 45.6965 32.4123 45.6965 32.4123 45.6965C32.4123 45.6965 32.5327 45.6965 32.5327 45.8193C33.0144 46.372 33.5262 46.894 34.038 47.4159C34.5497 47.9379 35.0615 48.4599 35.5432 49.0126L36.9883 50.4865C37.5903 51.1006 38.072 51.3463 38.7945 51.3463C39.8783 51.4691 41.0825 50.7321 41.5642 49.6267C42.0459 48.6442 41.805 47.416 40.9621 46.679C40.5651 46.2741 40.168 45.8558 39.7667 45.4329L39.7666 45.4329L39.7666 45.4328L39.7665 45.4328C38.9506 44.5732 38.1169 43.6948 37.2291 42.8716L35.182 40.7836C36.2657 40.6608 37.4699 40.4151 38.5537 39.9239C40.36 39.3097 41.6846 38.45 42.7684 37.3446Z" fill="black"/>
</svg>
