<svg width="65" height="66" viewBox="0 0 65 66" fill="none" xmlns="http://www.w3.org/2000/svg">
<path fill-rule="evenodd" clip-rule="evenodd" d="M32.6891 0C14.9223 0 0.519531 14.4028 0.519531 32.1696V33.3693C0.519531 51.1361 14.9223 65.5389 32.6891 65.5389C50.4558 65.5389 64.8586 51.1361 64.8586 33.3693V32.1695C64.8586 14.4028 50.4558 0 32.6891 0ZM40.7235 46.3556L45.5577 20.6479C45.5577 18.9369 43.3269 19.9708 43.3269 19.9708L16.1854 31.2024C16.1854 31.2024 14.9003 31.6655 15.0024 32.5217C15.1032 33.3766 16.1509 33.7697 16.1509 33.7697L22.8087 36.1327L40.0657 24.5723C40.9835 23.9847 41.4742 24.4478 40.6837 25.2256C40.1731 25.7279 28.4903 36.8085 26.9837 38.2355L27.0354 38.2621L38.1891 47.2832C40.0471 48.138 40.7235 46.3556 40.7235 46.3556Z" fill="black"/>
</svg>
