<svg width="65" height="66" viewBox="0 0 65 66" fill="none" xmlns="http://www.w3.org/2000/svg">
<path fill-rule="evenodd" clip-rule="evenodd" d="M32.7398 0C14.9731 0 0.570312 14.4028 0.570312 32.1695V33.3694C0.570312 51.1361 14.9731 65.5389 32.7398 65.5389C50.5065 65.5389 64.9093 51.1361 64.9093 33.3694V32.1695C64.9093 14.4028 50.5065 0 32.7398 0ZM15.0474 21.2998C15.3347 35.6278 22.2308 44.2384 34.321 44.2384H35.0062V36.0411C37.1387 36.3201 39.1446 37.2468 40.7724 38.705C42.4001 40.1632 43.5774 42.0881 44.1567 44.2384H50.4338C49.7886 41.7627 48.6453 39.4573 47.0794 37.4744C45.5135 35.4914 43.5606 33.876 41.3496 32.7346C43.3304 31.4856 45.0417 29.8253 46.3766 27.8578C47.7115 25.8902 48.6413 23.6577 49.1077 21.2998H43.4052C42.1674 25.8462 38.4984 29.9793 35.0062 30.3696V21.2998H29.3037V37.1892C25.7672 36.2707 21.3025 31.8162 21.1035 21.2998H15.0474Z" fill="black"/>
</svg>
